<?xml version="1.0" standalone="no"?>
<!DOCTYPE svg PUBLIC "-//W3C//DTD SVG 20010904//EN"
 "http://www.w3.org/TR/2001/REC-SVG-20010904/DTD/svg10.dtd">
<svg version="1.0" xmlns="http://www.w3.org/2000/svg"
 width="242.000000pt" height="166.000000pt" viewBox="0 0 242.000000 166.000000"
 preserveAspectRatio="xMidYMid meet">

<g transform="translate(0.000000,166.000000) scale(0.100000,-0.100000)"
fill="#000000" stroke="none">
<path d="M469 1301 c-89 -29 -156 -71 -219 -137 -69 -75 -104 -142 -127 -247
-14 -67 -15 -90 -5 -160 34 -231 202 -399 435 -432 39 -6 47 -5 47 9 0 14 14
16 92 16 87 0 158 14 158 32 0 4 -57 8 -126 8 -114 0 -125 2 -122 17 3 16 20
18 170 21 l167 2 43 49 c88 98 132 216 132 351 -1 133 -44 239 -137 338 l-50
52 -163 0 c-157 0 -164 1 -164 20 0 19 7 20 128 20 115 1 125 2 102 15 -17 10
-57 14 -123 15 -77 0 -99 3 -103 15 -8 20 -64 19 -135 -4z m431 -136 c-10 -12
-41 -15 -156 -15 -121 0 -144 2 -144 15 0 13 24 15 156 15 138 0 155 -2 144
-15z m-113 -61 c-10 -10 -119 -34 -154 -34 -26 0 -33 4 -33 20 0 19 7 20 97
20 53 0 94 -3 90 -6z m-189 -91 c-3 -15 -17 -18 -91 -21 -49 -2 -87 1 -87 7 0
11 79 28 138 30 36 1 43 -2 40 -16z m253 -233 c3 0 25 41 48 91 24 50 44 89
47 86 4 -4 64 -255 64 -270 0 -5 -10 -7 -22 -5 -19 3 -25 14 -38 78 l-17 75
-39 -77 c-21 -43 -41 -78 -44 -78 -3 0 -24 36 -45 81 l-40 81 -8 -44 c-18 -96
-27 -118 -47 -118 -11 0 -20 3 -20 6 0 9 50 233 57 259 4 15 17 -2 52 -73 25
-50 48 -92 52 -92z m-251 155 c0 -13 -24 -15 -156 -15 -138 0 -155 2 -144 15
10 12 41 15 156 15 121 0 144 -2 144 -15z m-2 -72 c-3 -16 -21 -18 -176 -21
-139 -2 -172 0 -172 11 0 8 3 17 7 20 3 4 82 7 175 7 156 0 169 -1 166 -17z
m2 -78 c0 -13 -26 -15 -175 -15 -149 0 -175 2 -175 15 0 13 26 15 175 15 149
0 175 -2 175 -15z m0 -75 c0 -19 -7 -20 -138 -20 -126 0 -141 2 -157 20 -18
20 -17 20 138 20 150 0 157 -1 157 -20z m0 -76 c0 -15 -10 -16 -74 -11 -118 9
-130 26 -18 27 79 0 92 -2 92 -16z m153 -79 c41 -13 40 -13 -55 -14 -93 -1
-98 0 -98 20 0 20 3 21 56 14 30 -3 74 -13 97 -20z m145 -67 c7 -7 12 -16 12
-20 0 -5 -69 -7 -152 -6 -136 3 -153 5 -156 21 -3 16 9 17 140 17 99 0 148 -4
156 -12z"/>
<path d="M1510 914 c0 -59 -2 -65 -17 -59 -73 31 -123 -2 -123 -80 0 -62 35
-100 83 -90 18 3 44 6 60 6 l27 0 0 144 c0 122 -2 145 -15 145 -12 0 -15 -14
-15 -66z m-20 -94 c24 -24 26 -63 4 -84 -18 -19 -55 -21 -72 -4 -17 17 -15 74
4 92 21 21 40 20 64 -4z"/>
<path d="M1611 961 c-17 -11 -7 -41 13 -41 22 0 30 20 15 36 -9 8 -19 10 -28
5z"/>
<path d="M1187 850 c-77 -61 -18 -184 79 -165 41 7 75 42 54 55 -9 6 -20 4
-31 -6 -17 -15 -57 -19 -75 -6 -6 4 -13 15 -17 25 -6 15 1 17 63 17 l70 0 0
29 c0 61 -90 93 -143 51z m91 -22 c21 -21 13 -28 -33 -28 -25 0 -45 4 -45 8 0
15 24 32 45 32 12 0 26 -5 33 -12z"/>
<path d="M1712 854 c-40 -28 -27 -59 41 -93 34 -17 38 -30 13 -46 -10 -6 -23
-5 -40 5 -28 15 -42 9 -33 -14 9 -24 73 -31 102 -12 46 30 29 76 -38 104 -35
15 -30 37 9 38 45 2 47 3 34 19 -16 19 -60 19 -88 -1z"/>
<path d="M1880 845 c-37 -39 -35 -108 3 -141 33 -28 54 -30 85 -8 12 8 22 10
22 5 0 -6 9 -11 20 -11 18 0 20 7 20 85 l0 85 -27 0 c-16 0 -44 2 -63 6 -29 5
-39 1 -60 -21z m94 -21 c19 -18 21 -75 4 -92 -7 -7 -25 -12 -40 -12 -21 0 -31
6 -38 26 -24 62 32 121 74 78z"/>
<path d="M2155 860 c-3 -5 -19 -7 -35 -3 l-30 6 0 -87 c0 -79 2 -86 20 -86 18
0 20 7 20 59 0 63 15 91 49 91 30 0 41 -22 41 -87 0 -56 2 -63 20 -63 18 0 20
7 20 68 0 84 -16 112 -65 112 -19 0 -37 -4 -40 -10z"/>
<path d="M1610 775 c0 -69 3 -85 15 -85 12 0 15 16 15 85 0 69 -3 85 -15 85
-12 0 -15 -16 -15 -85z"/>
</g>
</svg>
